<?xml version="1.0" standalone="no"?>
<!DOCTYPE svg PUBLIC "-//W3C//DTD SVG 20010904//EN"
 "http://www.w3.org/TR/2001/REC-SVG-20010904/DTD/svg10.dtd">
<svg version="1.0" xmlns="http://www.w3.org/2000/svg"
 width="512.000000pt" height="512.000000pt" viewBox="0 0 512.000000 512.000000"
 preserveAspectRatio="xMidYMid meet">
<metadata>
Created by potrace 1.11, written by Peter Selinger 2001-2013
</metadata>
<g transform="translate(0.000000,512.000000) scale(0.100000,-0.100000)"
fill="#000000" stroke="none">
<path d="M2495 5089 c-100 -88 -222 -321 -250 -476 -2 -15 -9 -52 -15 -82 -6
-30 -13 -84 -16 -120 -4 -36 -8 -67 -9 -69 -1 -1 -14 22 -29 52 -38 78 -120
200 -180 270 -124 144 -320 274 -394 262 -45 -7 -56 -18 -81 -82 -74 -190 -68
-473 14 -716 l24 -71 -32 30 c-46 42 -113 94 -178 136 -60 40 -225 119 -274
132 -16 5 -32 9 -35 10 -50 14 -133 26 -189 28 -65 1 -74 -1 -98 -26 -25 -25
-27 -33 -25 -99 2 -95 16 -164 55 -268 51 -139 152 -303 250 -408 l31 -32 -69
24 c-65 22 -183 50 -265 61 -77 11 -286 4 -332 -11 -10 -3 -29 -7 -43 -10 -57
-10 -134 -46 -149 -69 -23 -35 -20 -68 14 -134 48 -97 89 -152 179 -242 92
-91 199 -168 316 -228 l72 -37 -106 -12 c-58 -6 -116 -14 -128 -17 -13 -3 -33
-7 -44 -10 -50 -11 -137 -37 -169 -52 -144 -64 -214 -107 -287 -178 -50 -50
-54 -57 -50 -90 10 -73 134 -169 330 -255 73 -32 227 -69 344 -83 l106 -12
-44 -23 c-149 -77 -234 -137 -333 -236 -105 -104 -117 -120 -171 -219 -74
-137 -58 -177 86 -221 100 -30 153 -37 276 -37 136 1 290 28 413 72 l55 20
-31 -33 c-163 -174 -294 -452 -307 -653 -9 -139 33 -167 213 -141 102 16 202
51 322 114 86 45 202 126 265 185 l32 30 -24 -72 c-21 -62 -43 -153 -60 -256
-10 -63 -5 -253 9 -325 30 -155 69 -220 131 -220 29 0 117 42 191 91 123 81
281 272 366 439 l38 75 1 -55 c1 -30 3 -59 4 -65 0 -5 5 -32 9 -60 11 -79 55
-234 86 -307 37 -86 118 -212 168 -261 26 -26 52 -41 75 -44 31 -4 42 1 77 34
78 71 172 229 213 358 27 81 48 183 61 290 l12 100 29 -60 c99 -208 288 -411
467 -501 108 -54 152 -42 188 53 74 199 69 473 -14 715 l-23 66 76 -62 c83
-68 165 -126 178 -126 5 0 24 -10 43 -23 89 -58 283 -117 400 -120 128 -4 148
31 126 214 -22 176 -148 422 -300 587 l-31 33 30 -11 c55 -22 159 -50 220 -60
33 -5 71 -12 85 -15 34 -7 214 -7 275 0 28 3 88 17 134 31 141 43 160 86 90
214 -99 183 -260 332 -484 450 l-76 40 43 1 c24 0 50 2 58 3 8 2 40 6 70 10
215 26 467 140 585 265 45 48 42 98 -10 151 -85 87 -268 184 -425 225 -100 26
-123 30 -241 41 l-75 7 75 39 c222 117 400 286 490 465 35 70 39 108 13 140
-19 25 -122 67 -192 78 -25 4 -54 9 -65 11 -31 7 -194 5 -266 -2 -69 -7 -229
-45 -294 -70 l-40 -16 31 34 c41 43 138 172 155 206 8 15 25 47 40 72 32 56
83 197 98 270 17 83 18 183 2 213 -23 43 -78 51 -211 32 -153 -21 -405 -145
-535 -261 -16 -15 -41 -37 -53 -48 l-24 -21 15 40 c96 256 106 538 27 748 -39
105 -93 110 -237 25 -153 -90 -308 -264 -411 -460 l-38 -73 -12 110 c-24 220
-87 396 -197 550 -58 81 -93 112 -136 120 -32 6 -41 2 -74 -26z"/>
</g>
</svg>
